<svg width="30" height="30" viewBox="0 0 30 30" fill="none" xmlns="http://www.w3.org/2000/svg">
<path d="M5 12.5037H25.3313V21.25C25.3313 23.7452 23.3085 25.7681 20.8133 25.7681H9.51807C7.02281 25.7681 5 23.7452 5 21.25V12.5037Z" fill="#D0D3DB"/>
<path d="M20.8133 6.29144H9.51807C7.02281 6.29144 5 8.31425 5 10.8095V12.5038H25.3313V10.8095C25.3313 8.31425 23.3085 6.29144 20.8133 6.29144Z" fill="#757B8C"/>
<path fill-rule="evenodd" clip-rule="evenodd" d="M10.6477 3.75C11.1155 3.75 11.4948 4.12928 11.4948 4.59714V7.98569C11.4948 8.45355 11.1155 8.83283 10.6477 8.83283C10.1798 8.83283 9.80054 8.45355 9.80054 7.98569V4.59714C9.80054 4.12928 10.1798 3.75 10.6477 3.75ZM19.6838 3.75C20.1517 3.75 20.531 4.12928 20.531 4.59714V7.98569C20.531 8.45355 20.1517 8.83283 19.6838 8.83283C19.216 8.83283 18.8367 8.45355 18.8367 7.98569V4.59714C18.8367 4.12928 19.216 3.75 19.6838 3.75Z" fill="#D0D3DB"/>
</svg>
