<svg width="30" height="30" viewBox="0 0 30 30" fill="none" xmlns="http://www.w3.org/2000/svg">
<path d="M5 12.5038H25.3313V21.25C25.3313 23.7453 23.3085 25.7681 20.8133 25.7681H9.51807C7.02281 25.7681 5 23.7453 5 21.25V12.5038Z" fill="#1554D5"/>
<path d="M20.8133 6.29138H9.51807C7.02281 6.29138 5 8.31419 5 10.8095V12.5037H25.3313V10.8095C25.3313 8.31419 23.3085 6.29138 20.8133 6.29138Z" fill="#9DB8EE"/>
<path fill-rule="evenodd" clip-rule="evenodd" d="M10.6476 3.75C11.1154 3.75 11.4947 4.12928 11.4947 4.59714V7.98569C11.4947 8.45355 11.1154 8.83283 10.6476 8.83283C10.1797 8.83283 9.80042 8.45355 9.80042 7.98569V4.59714C9.80042 4.12928 10.1797 3.75 10.6476 3.75ZM19.6837 3.75C20.1516 3.75 20.5308 4.12928 20.5308 4.59714V7.98569C20.5308 8.45355 20.1516 8.83283 19.6837 8.83283C19.2158 8.83283 18.8366 8.45355 18.8366 7.98569V4.59714C18.8366 4.12928 19.2158 3.75 19.6837 3.75Z" fill="#1554D5"/>
</svg>
