<svg width="24" height="25" viewBox="0 0 24 25" fill="none" xmlns="http://www.w3.org/2000/svg">
<path d="M17.44 6.7364L17.34 6.51665C17.07 5.94728 16.76 5.28801 16.57 4.90844C16.11 4.00943 15.32 3.50999 14.35 3.5H9.64C8.67 3.50999 7.89 4.00943 7.43 4.90844C7.23 5.30799 6.89 6.02719 6.61 6.61654L6.55 6.7364C6.52 6.81632 6.44 6.85627 6.36 6.85627C3.95 6.85627 2 8.8141 2 11.2114V17.1448C2 19.5422 3.95 21.5 6.36 21.5H17.64C20.04 21.5 22 19.5422 22 17.1448V11.2114C22 8.8141 20.04 6.85627 17.64 6.85627C17.55 6.85627 17.48 6.80633 17.44 6.7364Z" fill="#1554D5"/>
<path fill-rule="evenodd" clip-rule="evenodd" d="M16.71 10.5721C16.71 11.0715 17.11 11.4711 17.61 11.4711C18.11 11.4711 18.52 11.0715 18.52 10.5721C18.52 10.0726 18.11 9.66309 17.61 9.66309C17.11 9.66309 16.71 10.0726 16.71 10.5721ZM14.77 16.6054C14.06 17.3146 13.08 17.7541 12 17.7541C10.95 17.7541 9.97 17.3446 9.22 16.6054C8.48 15.8562 8.07 14.8773 8.07 13.8285C8.06 12.7896 8.47 11.8107 9.21 11.0615C9.96 10.3124 10.95 9.90282 12 9.90282C13.05 9.90282 14.04 10.3124 14.78 11.0515C15.52 11.8007 15.93 12.7896 15.93 13.8285C15.92 14.9172 15.48 15.8962 14.77 16.6054ZM12 11.4012C11.35 11.4012 10.74 11.6509 10.27 12.1204C9.81 12.5798 9.56 13.1892 9.57 13.8185V13.8285C9.57 14.4777 9.82 15.0871 10.28 15.5465C10.74 16.006 11.35 16.2558 12 16.2558C13.34 16.2558 14.42 15.167 14.43 13.8285C14.43 13.1792 14.18 12.5699 13.72 12.1104C13.26 11.6509 12.65 11.4012 12 11.4012Z" fill="white"/>
</svg>
