<svg width="30" height="30" viewBox="0 0 30 30" fill="none" xmlns="http://www.w3.org/2000/svg">
<g clip-path="url(#clip0_1255_7761)">
<path d="M25.5803 6.4487C25.4024 6.07677 24.8996 5.96997 24.5902 6.27927L22.768 8.10147C22.3325 8.01013 21.9888 7.66654 21.8981 7.23091L23.7203 5.40871C24.0193 5.10967 23.9336 4.60132 23.5502 4.41859C21.9071 3.63462 19.9378 3.97226 18.6485 5.26036C17.6212 6.28829 17.188 7.753 17.4746 9.15885L10.0732 16.4551C9.76314 16.399 9.44987 16.3769 9.13581 16.3895C6.83651 16.481 4.96341 18.3843 5.00193 20.7558C5.03954 23.0694 6.91309 25 9.29749 25C11.7289 25 13.6318 23.0182 13.6134 20.6565C13.6116 20.4159 13.5898 20.1773 13.548 19.9415L21.0324 12.5617C22.3908 12.7761 23.7551 12.3352 24.7386 11.3505C26.0273 10.0624 26.3656 8.09249 25.5803 6.4487ZM9.30713 22.5381C8.28941 22.5381 7.46151 21.7102 7.46151 20.6925C7.46151 19.6748 8.28937 18.8469 9.30713 18.8469C10.3249 18.8469 11.1528 19.6748 11.1528 20.6925C11.1528 21.7102 10.3249 22.5381 9.30713 22.5381Z" fill="#D0D3DB"/>
<path d="M13.5089 9.25714C13.8363 7.81827 13.4104 6.31571 12.3536 5.25894C10.6738 3.58095 7.94206 3.57976 6.26346 5.25894C4.58021 6.94218 4.57944 9.66635 6.26346 11.3491C7.26198 12.347 8.69482 12.7885 10.0676 12.5434L11.2359 13.5828L14.6159 10.2035L13.5089 9.25714ZM10.6131 9.60979C9.89186 10.3298 8.72161 10.3269 8.00326 9.60979V9.60918C7.28356 8.88948 7.28356 7.71914 8.0033 6.9994C8.7002 6.30188 9.91676 6.3025 10.6137 6.9994C11.3333 7.71897 11.3357 8.88722 10.6131 9.60979Z" fill="#757B8C"/>
<path d="M24.7375 17.6498C23.739 16.6513 22.3073 16.2098 20.9267 16.4567L19.918 15.3428L16.4568 18.804L17.4531 19.9358C17.2079 21.3128 17.6495 22.742 18.6474 23.7399C20.3287 25.4213 23.0609 25.4166 24.7375 23.7399C26.4167 22.0608 26.4167 19.329 24.7375 17.6498ZM22.997 22.0001C22.2773 22.7198 21.107 22.7198 20.3872 22.0001H20.3866C19.668 21.2803 19.668 20.1094 20.3866 19.3897C21.1075 18.6699 22.2772 18.6699 22.997 19.3897C23.7167 20.1094 23.7167 21.2804 22.997 22.0001Z" fill="#757B8C"/>
</g>
<defs>
<clipPath id="clip0_1255_7761">
<rect width="21" height="21" fill="white" transform="translate(5 4)"/>
</clipPath>
</defs>
</svg>
