<svg width="29" height="28" viewBox="0 0 29 28" fill="none" xmlns="http://www.w3.org/2000/svg">
<rect x="0.5" width="28" height="28" rx="2" fill="#FBC55D"/>
<g clip-path="url(#clip0_829_13176)">
<path d="M15.06 4.48047C9.52346 4.48047 4.97998 9.02395 4.97998 14.5605C4.97998 20.097 9.52346 24.6405 15.06 24.6405C20.5965 24.6405 25.14 20.097 25.14 14.5605C25.14 9.02395 20.5965 4.48047 15.06 4.48047ZM15.06 6.84297C18.5421 6.84297 21.5252 9.21472 22.462 12.3977C22.4084 12.2611 22.3062 12.1432 22.1626 12.0769C20.535 11.3236 17.9491 10.4261 15.06 10.4261C12.1709 10.4261 9.585 11.3236 7.95732 12.0769C7.81372 12.1432 7.71154 12.2611 7.65791 12.3977C8.59476 9.21472 11.5778 6.84297 15.06 6.84297ZM7.49506 16.0812C7.55424 16.3031 7.74044 16.4795 7.98213 16.514L9.40116 16.7113C11.2082 16.9691 12.6513 18.4122 12.9092 20.2193L13.1064 21.6383C13.1364 21.8477 13.275 22.0114 13.4552 22.0909C10.4826 21.4533 8.0975 19.0667 7.49506 16.0812ZM15.06 16.3323C14.0829 16.3323 13.2881 15.5375 13.2881 14.5605C13.2881 13.5834 14.0829 12.7886 15.06 12.7886C16.037 12.7886 16.8319 13.5834 16.8319 14.5605C16.8319 15.5375 16.037 16.3323 15.06 16.3323ZM16.6648 22.0909C16.845 22.0113 16.9836 21.8477 17.0135 21.6383L17.2108 20.2192C17.4686 18.4122 18.9117 16.9691 20.7188 16.7112L22.1378 16.514C22.3795 16.4794 22.5657 16.3031 22.6249 16.0812C22.0225 19.0667 19.6373 21.4533 16.6648 22.0909Z" fill="white"/>
<path d="M15.0599 13.9697C14.734 13.9697 14.4692 14.2345 14.4692 14.5604C14.4692 14.8862 14.734 15.151 15.0599 15.151C15.3857 15.151 15.6505 14.8862 15.6505 14.5604C15.6505 14.2345 15.3857 13.9697 15.0599 13.9697Z" fill="white"/>
</g>
<defs>
<clipPath id="clip0_829_13176">
<rect width="20.16" height="20.16" fill="white" transform="translate(4.97998 4.48047)"/>
</clipPath>
</defs>
</svg>
