<svg width="30" height="30" viewBox="0 0 30 30" fill="none" xmlns="http://www.w3.org/2000/svg">
<g clip-path="url(#clip0_52_6372)">
<path d="M25.5802 6.44864C25.4023 6.07671 24.8994 5.96991 24.5901 6.27921L22.7679 8.10141C22.3323 8.01007 21.9887 7.66648 21.8979 7.23085L23.7201 5.40865C24.0192 5.10961 23.9335 4.60126 23.5501 4.41853C21.907 3.63456 19.9376 3.9722 18.6484 5.2603C17.621 6.28823 17.1879 7.75294 17.4745 9.15879L10.0731 16.4551C9.76302 16.399 9.44974 16.3769 9.13569 16.3894C6.83639 16.4809 4.96329 18.3842 5.0018 20.7558C5.03942 23.0693 6.91297 25 9.29737 25C11.7288 25 13.6317 23.0181 13.6133 20.6565C13.6114 20.4158 13.5897 20.1772 13.5479 19.9414L21.0323 12.5616C22.3906 12.7761 23.755 12.3351 24.7385 11.3505C26.0272 10.0624 26.3655 8.09243 25.5802 6.44864ZM9.30701 22.538C8.28929 22.538 7.46139 21.7101 7.46139 20.6924C7.46139 19.6747 8.28925 18.8468 9.30701 18.8468C10.3247 18.8468 11.1526 19.6747 11.1526 20.6924C11.1526 21.7101 10.3247 22.538 9.30701 22.538Z" fill="#9DB8EE"/>
<path d="M13.5089 9.25714C13.8363 7.81827 13.4104 6.31571 12.3536 5.25894C10.6738 3.58095 7.94206 3.57976 6.26346 5.25894C4.58021 6.94218 4.57944 9.66635 6.26346 11.3491C7.26198 12.347 8.69482 12.7885 10.0676 12.5434L11.2359 13.5828L14.6159 10.2035L13.5089 9.25714ZM10.6131 9.60979C9.89186 10.3298 8.72161 10.3269 8.00326 9.60979V9.60918C7.28356 8.88948 7.28356 7.71914 8.0033 6.9994C8.7002 6.30188 9.91676 6.3025 10.6137 6.9994C11.3333 7.71897 11.3357 8.88722 10.6131 9.60979Z" fill="#1554D5"/>
<path d="M24.7375 17.6495C23.739 16.651 22.3073 16.2095 20.9267 16.4564L19.918 15.3425L16.4568 18.8037L17.4531 19.9355C17.2079 21.3125 17.6495 22.7417 18.6474 23.7396C20.3287 25.4209 23.0609 25.4163 24.7375 23.7396C26.4167 22.0605 26.4167 19.3287 24.7375 17.6495ZM22.997 21.9998C22.2773 22.7195 21.107 22.7195 20.3872 21.9998H20.3866C19.668 21.28 19.668 20.1091 20.3866 19.3894C21.1075 18.6696 22.2772 18.6696 22.997 19.3894C23.7167 20.1091 23.7167 21.2801 22.997 21.9998Z" fill="#1554D5"/>
</g>
<defs>
<clipPath id="clip0_52_6372">
<rect width="21" height="21" fill="white" transform="translate(5 4)"/>
</clipPath>
</defs>
</svg>
