<svg width="29" height="28" viewBox="0 0 29 28" fill="none" xmlns="http://www.w3.org/2000/svg">
<rect x="0.861816" width="28" height="28" rx="2" fill="#64A8F9"/>
<g clip-path="url(#clip0_829_13118)">
<path d="M16.2851 13.0518C15.7623 13.0518 15.3369 13.4771 15.3369 14C15.3369 14.5228 15.7623 14.9482 16.2851 14.9482C16.808 14.9482 17.2333 14.5228 17.2333 14C17.2333 13.4771 16.808 13.0518 16.2851 13.0518Z" fill="white"/>
<path d="M16.9136 10.1777V11.8876C17.4005 12.0326 17.8174 12.3415 18.0999 12.7504L19.7262 12.2219C19.1731 11.1561 18.1392 10.3784 16.9136 10.1777Z" fill="white"/>
<path d="M20.1151 13.416L18.4883 13.9446C18.4888 13.9631 18.4898 13.9815 18.4898 14C18.4898 14.5034 18.3198 14.9677 18.0347 15.3392L19.0391 16.7216C19.7312 16.0215 20.1591 15.0598 20.1591 14C20.1591 13.8016 20.1441 13.6065 20.1151 13.416Z" fill="white"/>
<path d="M16.2853 5.73145H8.64462C8.29778 5.73145 8.01659 6.01264 8.01659 6.35948C8.01659 6.70632 8.29778 6.98751 8.64462 6.98751H11.9092C11.2204 7.41886 10.5994 7.9486 10.0661 8.55721H5.79747C5.45062 8.55725 5.16943 8.83848 5.16943 9.18532C5.16943 9.53216 5.45062 9.81335 5.79747 9.81335H9.1576C8.43302 11.0422 8.01655 12.4734 8.01655 14.0002C8.01655 15.7767 8.57988 17.4242 9.53708 18.7735H7.75513C7.40829 18.7735 7.12709 19.0547 7.12709 19.4016C7.12709 19.7484 7.40829 20.0296 7.75513 20.0296H10.6333C11.0248 20.3969 11.4521 20.7265 11.9092 21.0128H5.86225C5.5154 21.0128 5.23421 21.294 5.23421 21.6408C5.23421 21.9877 5.5154 22.2689 5.86225 22.2689H16.2853C20.8448 22.2689 24.554 18.5595 24.554 14.0001C24.554 9.44077 20.8447 5.73145 16.2853 5.73145ZM19.3361 18.1217C19.3245 18.1315 19.313 18.1413 19.3006 18.1503C19.2866 18.1605 19.2722 18.17 19.2577 18.1788C18.4186 18.7774 17.3924 19.13 16.2853 19.13C15.1783 19.13 14.1521 18.7774 13.3129 18.1788C13.2984 18.17 13.2841 18.1605 13.2701 18.1503C13.2576 18.1412 13.2462 18.1314 13.2346 18.1217C11.974 17.1861 11.1555 15.687 11.1555 14.0002C11.1555 11.1716 13.4567 8.87032 16.2853 8.87032C19.1139 8.87032 21.4152 11.1716 21.4152 14.0002C21.4152 15.6871 20.5967 17.1861 19.3361 18.1217Z" fill="white"/>
<path d="M12.8447 12.2219L14.471 12.7504C14.7536 12.3416 15.1704 12.0327 15.6574 11.8876V10.1777C14.4318 10.3784 13.3979 11.1561 12.8447 12.2219Z" fill="white"/>
<path d="M17.019 16.0781C16.7893 16.1594 16.5425 16.2042 16.2852 16.2042C16.0281 16.2042 15.7812 16.1594 15.5515 16.0781L14.5469 17.4609C15.07 17.7246 15.6605 17.8735 16.2852 17.8735C16.91 17.8735 17.5005 17.7247 18.0236 17.4609L17.019 16.0781Z" fill="white"/>
<path d="M14.0811 14C14.0811 13.9815 14.082 13.9631 14.0824 13.9446L12.4556 13.416C12.4267 13.6065 12.4116 13.8016 12.4116 14C12.4116 15.0599 12.8396 16.0215 13.5317 16.7217L14.5361 15.3392C14.2511 14.9677 14.0811 14.5034 14.0811 14Z" fill="white"/>
</g>
<defs>
<clipPath id="clip0_829_13118">
<rect width="19.3846" height="19.3846" fill="white" transform="translate(5.16943 4.30762)"/>
</clipPath>
</defs>
</svg>
