<svg width="29" height="28" viewBox="0 0 29 28" fill="none" xmlns="http://www.w3.org/2000/svg">
<rect x="0.5" width="28" height="28" rx="2" fill="#9A88F9"/>
<g clip-path="url(#clip0_829_13146)">
<path d="M21.769 21.8076H7.23054C6.7847 21.8076 6.42285 22.1695 6.42285 22.6153C6.42285 23.0612 6.7847 23.423 7.23054 23.423H21.769C22.2149 23.423 22.5767 23.0612 22.5767 22.6153C22.5767 22.1695 22.2149 21.8076 21.769 21.8076Z" fill="white"/>
<path d="M12.2222 19.6529C12.8304 19.6529 13.4386 19.4211 13.9014 18.9583L19.997 12.8626C20.3128 12.5468 20.3128 12.0364 19.997 11.7206L13.3473 5.07084C13.0315 4.75503 12.521 4.75503 12.2052 5.07084L6.10876 11.1657C5.18315 12.0913 5.18315 13.5985 6.10876 14.5241L10.5422 18.9575C11.0058 19.4211 11.614 19.6529 12.2222 19.6529ZM12.7763 6.78315L18.2839 12.2908L18.1902 12.3845H7.20076C7.22015 12.3603 7.22903 12.3304 7.25165 12.3078L12.7763 6.78315Z" fill="white"/>
<path d="M20.2339 17.5678C20.2339 18.7179 21.1401 19.6541 22.2531 19.6541C23.3661 19.6541 24.2723 18.7179 24.2723 17.5678C24.2723 16.6406 23.1141 14.8111 22.7587 14.2732C22.535 13.9324 21.9712 13.9324 21.7475 14.2732C21.3921 14.8111 20.2339 16.6406 20.2339 17.5678Z" fill="white"/>
</g>
<defs>
<clipPath id="clip0_829_13146">
<rect width="19.3846" height="19.3846" fill="white" transform="translate(4.80762 4.30762)"/>
</clipPath>
</defs>
</svg>
