<svg width="30" height="30" viewBox="0 0 30 30" fill="none" xmlns="http://www.w3.org/2000/svg">
<g clip-path="url(#clip0_1255_7754)">
<path d="M25.5234 11.3216H22.9571L22.2535 9.6016C21.4671 7.8016 19.7286 6.6416 17.7419 6.6416H12.2368C10.2501 6.6416 8.47024 7.8016 7.76659 9.5616L7.06294 11.2816H4.49669C4.20696 11.2816 4 11.5216 4 11.8016V11.9216L4.24835 12.9216C4.28974 13.1616 4.49669 13.3216 4.74504 13.3216H5.61425C4.99339 13.8416 4.66226 14.5616 4.66226 15.3216V17.3216C4.66226 17.9616 4.9106 18.5616 5.36591 19.0416V21.2816C5.36591 22.0416 5.98678 22.6416 6.73182 22.6416H8.09772C8.84276 22.6416 9.46363 22.0416 9.46363 21.3216V20.0016H20.5151V21.3216C20.5151 22.0416 21.1359 22.6416 21.881 22.6416H23.2469C23.9919 22.6416 24.6128 22.0416 24.6128 21.3216V19.0416C25.0681 18.5616 25.3164 17.9216 25.3164 17.2816V15.2816C25.3164 14.5216 24.9853 13.8016 24.3644 13.2816H25.2336C25.482 13.2816 25.689 13.1216 25.7303 12.8816L25.9787 11.8816C26.0615 11.6016 25.8959 11.3616 25.6062 11.2816C25.6062 11.2816 25.5648 11.2816 25.5234 11.3216ZM10.3328 10.5616C10.664 9.8016 11.409 9.3216 12.2368 9.3216H17.7419C18.5697 9.3216 19.3561 9.8016 19.6458 10.5616L20.4737 12.6416H9.46363L10.3328 10.5616ZM8.09772 17.3216C7.35268 17.3616 6.69042 16.8016 6.64903 16.0816C6.60764 15.3616 7.18712 14.7216 7.93216 14.6816H8.09772C8.92554 14.6816 10.1673 15.8816 10.1673 16.6816C10.1673 17.4416 8.92554 17.3216 8.09772 17.3216ZM21.881 17.3216C21.0531 17.3216 19.8114 17.4416 19.8114 16.6416C19.8114 15.8416 21.0531 14.6416 21.881 14.6416C22.626 14.6016 23.2883 15.1616 23.3297 15.8816C23.371 16.6016 22.7916 17.2416 22.0465 17.2816C21.9638 17.2816 21.9224 17.2816 21.881 17.3216Z" fill="#D0D3DB"/>
</g>
<defs>
<clipPath id="clip0_1255_7754">
<rect width="30" height="30" fill="white"/>
</clipPath>
</defs>
</svg>
