<svg width="24" height="24" viewBox="0 0 24 24" fill="none" xmlns="http://www.w3.org/2000/svg">
<path d="M18.3146 9.99076C18.3146 10.0452 17.8882 15.4378 17.6447 17.7073C17.4922 19.1 16.5943 19.9448 15.2475 19.9688C14.2127 19.992 13.1997 20 12.2031 20C11.1449 20 10.1101 19.992 9.10567 19.9688C7.80401 19.9376 6.90537 19.076 6.76065 17.7073C6.51012 15.4298 6.09154 10.0452 6.08376 9.99076C6.07598 9.82676 6.12888 9.67077 6.23625 9.54437C6.34207 9.42758 6.49456 9.35718 6.65484 9.35718H17.7513C17.9108 9.35718 18.0555 9.42758 18.1699 9.54437C18.2765 9.67077 18.3301 9.82676 18.3146 9.99076Z" fill="#FF5A54"/>
<path d="M19.4 7.18149C19.4 6.8527 19.1409 6.59511 18.8297 6.59511H16.4971C16.0225 6.59511 15.6102 6.25752 15.5043 5.78154L15.3736 5.19836C15.1908 4.49358 14.5598 4 13.8518 4H10.549C9.8332 4 9.20843 4.49358 9.01859 5.23676L8.89643 5.78234C8.78984 6.25752 8.37748 6.59511 7.90365 6.59511H5.57108C5.25909 6.59511 5 6.8527 5 7.18149V7.48548C5 7.80627 5.25909 8.07186 5.57108 8.07186H18.8297C19.1409 8.07186 19.4 7.80627 19.4 7.48548V7.18149Z" fill="#FF5A54"/>
</svg>
