<svg width="24" height="24" viewBox="0 0 24 24" fill="none" xmlns="http://www.w3.org/2000/svg">
<path d="M19.9511 19.9537C24.3438 15.561 24.3438 8.43899 19.9511 4.04625C15.5584 -0.346482 8.43633 -0.346482 4.04359 4.04625C-0.349141 8.43899 -0.349141 15.561 4.04359 19.9537C8.43633 24.3465 15.5584 24.3465 19.9511 19.9537Z" fill="#FF5A54"/>
<path fill-rule="evenodd" clip-rule="evenodd" d="M23.0878 13.9085C22.2874 18.5922 18.5919 22.2875 13.9083 23.088L7.85196 17.0317C6.40277 15.8357 5.479 14.0257 5.479 12C5.479 8.39862 8.39847 5.47925 11.9998 5.47925C14.0255 5.47925 15.8355 6.40297 17.0315 7.85215L23.0878 13.9085Z" fill="#DB3A3C"/>
<path fill-rule="evenodd" clip-rule="evenodd" d="M9.25104 10.2348L11.0162 12L9.25104 13.7652C8.97939 14.0366 8.97939 14.4771 9.25104 14.7487C9.52263 15.0205 9.96302 15.0205 10.2347 14.7487L11.9998 12.9835L13.7649 14.7487C14.0366 15.0205 14.4769 15.0205 14.7485 14.7487C15.0201 14.4771 15.0201 14.0366 14.7485 13.7652L12.9835 12L14.7485 10.2348C15.0201 9.96336 15.0201 9.52287 14.7485 9.25109C14.4769 8.97945 14.0366 8.97945 13.7649 9.25109L11.9998 11.0164L10.2347 9.25109C9.96302 8.97945 9.52258 8.97945 9.25099 9.25109C8.97939 9.52287 8.97939 9.9634 9.25104 10.2348ZM11.9998 5.47925C15.6011 5.47925 18.5205 8.39862 18.5205 12C18.5205 15.6013 15.6011 18.5207 11.9998 18.5207C8.39847 18.5207 5.479 15.6013 5.479 12C5.479 8.39862 8.39847 5.47925 11.9998 5.47925Z" fill="white"/>
</svg>
