<svg width="17" height="16" viewBox="0 0 17 16" fill="none" xmlns="http://www.w3.org/2000/svg">
<path d="M13.129 4.08008C15.1715 4.08008 16.834 5.79657 16.834 7.90627V12.0999C16.834 14.2044 15.1757 15.9166 13.1373 15.9166L3.87398 15.9166C1.83065 15.9166 0.167316 14.201 0.167316 12.0913V7.89767C0.167316 5.79313 1.82648 4.08008 3.86565 4.08008H4.64898L13.129 4.08008Z" fill="#D0D3DB"/>
<path d="M8.95592 11.3642L11.3801 8.89091C11.6301 8.63529 11.6301 8.22393 11.3784 7.96916C11.1268 7.71523 10.7209 7.71608 10.4709 7.97085L9.14342 9.32513L9.14342 0.734756C9.14342 0.375025 8.85592 0.0830078 8.50092 0.0830078C8.14676 0.0830078 7.86009 0.375025 7.86009 0.734756L7.86009 9.32513L6.53176 7.97085C6.28176 7.71608 5.87592 7.71523 5.62426 7.96916C5.49842 8.09697 5.43509 8.26371 5.43509 8.4313C5.43509 8.5972 5.49842 8.76395 5.62259 8.89091L8.04676 11.3642C8.16759 11.4869 8.33092 11.5563 8.50092 11.5563C8.67176 11.5563 8.83509 11.4869 8.95592 11.3642Z" fill="#757B8C"/>
</svg>
