<svg width="24" height="24" viewBox="0 0 24 24" fill="none" xmlns="http://www.w3.org/2000/svg">
<path d="M18.4331 9.96053L10.0932 18.3419C9.65944 18.7641 9.0894 19 8.49458 19H5.58243C5.42133 19 5.27263 18.9379 5.1611 18.8262C5.04957 18.7144 5 18.5654 5 18.404L5.07435 15.4612C5.08674 14.8776 5.3222 14.3313 5.73114 13.9215L11.6422 7.99867C11.7413 7.89933 11.9148 7.89933 12.0139 7.99867L14.0871 10.0636C14.2235 10.1989 14.4217 10.2871 14.6324 10.2871C15.0909 10.2871 15.4503 9.91459 15.4503 9.46758C15.4503 9.24408 15.3635 9.04541 15.2272 8.89641C15.19 8.84674 13.216 6.88115 13.216 6.88115C13.0921 6.75698 13.0921 6.5459 13.216 6.42173L14.0462 5.57738C14.8146 4.80754 16.0538 4.80754 16.8221 5.57738L18.4331 7.19157C19.189 7.949 19.189 9.19069 18.4331 9.96053Z" fill="#1554D5"/>
</svg>
