<svg width="30" height="30" viewBox="0 0 30 30" fill="none" xmlns="http://www.w3.org/2000/svg">
<g clip-path="url(#clip0_1255_7727)">
<path d="M20.125 14.4814C20.125 15.586 19.2296 16.4814 18.125 16.4814H10.125V19.4814C10.125 20.586 11.0204 21.4814 12.125 21.4814H22.125C23.2296 21.4814 24.125 20.586 24.125 19.4814V11.4814C24.125 10.3769 23.2296 9.48145 22.125 9.48145H20.125V14.4814Z" fill="#D0D3DB"/>
<path d="M6.875 17.4814H18.2322C19.2776 17.4814 20.1251 16.586 20.1251 15.4814V7.48145C20.1251 6.37688 19.2776 5.48145 18.2322 5.48145H6.875V17.4814Z" fill="#757B8C"/>
<path fill-rule="evenodd" clip-rule="evenodd" d="M6.125 3.73145C6.53921 3.73145 6.875 4.06723 6.875 4.48145V24.4814C6.875 24.8957 6.53921 25.2314 6.125 25.2314C5.71079 25.2314 5.375 24.8957 5.375 24.4814V4.48145C5.375 4.06723 5.71079 3.73145 6.125 3.73145Z" fill="#D0D3DB"/>
</g>
<defs>
<clipPath id="clip0_1255_7727">
<rect width="30" height="30" fill="white"/>
</clipPath>
</defs>
</svg>
