<svg width="30" height="30" viewBox="0 0 30 30" fill="none" xmlns="http://www.w3.org/2000/svg">
<path d="M15 25.3125C20.6954 25.3125 25.3125 20.6954 25.3125 15C25.3125 9.30456 20.6954 4.6875 15 4.6875C9.30456 4.6875 4.6875 9.30456 4.6875 15C4.6875 20.6954 9.30456 25.3125 15 25.3125Z" fill="#9DB8EE"/>
<path fill-rule="evenodd" clip-rule="evenodd" d="M15 8.4375C15.5178 8.4375 15.9375 8.85723 15.9375 9.375V15C15.9375 15.5178 15.5178 15.9375 15 15.9375C14.4822 15.9375 14.0625 15.5178 14.0625 15V9.375C14.0625 8.85723 14.4822 8.4375 15 8.4375Z" fill="#1554D5"/>
<path fill-rule="evenodd" clip-rule="evenodd" d="M14.1879 14.5315C14.4466 14.083 15.0199 13.9292 15.4684 14.1879L20.3434 17.0004C20.7919 17.2592 20.9457 17.8325 20.687 18.281C20.4282 18.7295 19.8549 18.8833 19.4064 18.6245L14.5314 15.812C14.0829 15.5533 13.9291 14.98 14.1879 14.5315Z" fill="#1554D5"/>
<path fill-rule="evenodd" clip-rule="evenodd" d="M3.72656 6.05859C4.24433 6.05859 4.66406 6.47833 4.66406 6.99609V10.7461H8.41406C8.93183 10.7461 9.35156 11.1658 9.35156 11.6836C9.35156 12.2014 8.93183 12.6211 8.41406 12.6211H3.72656C3.2088 12.6211 2.78906 12.2014 2.78906 11.6836V6.99609C2.78906 6.47833 3.2088 6.05859 3.72656 6.05859Z" fill="#1554D5"/>
<path fill-rule="evenodd" clip-rule="evenodd" d="M12.8078 3.96684C14.9904 3.53201 17.2528 3.75427 19.309 4.60548C21.3652 5.4567 23.1228 6.89863 24.3594 8.74889C25.5959 10.5991 26.256 12.7746 26.256 15C26.256 17.2254 25.5959 19.4009 24.3594 21.2511C23.1228 23.1014 21.3652 24.5433 19.309 25.3945C17.2528 26.2457 14.9904 26.468 12.8078 26.0332C10.6253 25.5983 8.62073 24.526 7.04776 22.9517C6.68179 22.5854 6.68203 21.9918 7.0483 21.6259C7.41456 21.2599 8.00816 21.2602 8.37412 21.6264C9.68494 22.9383 11.3554 23.8319 13.1742 24.1943C14.993 24.5567 16.8783 24.3715 18.5918 23.6621C20.3054 22.9528 21.77 21.7511 22.8005 20.2093C23.8309 18.6674 24.381 16.8545 24.381 15C24.381 13.1455 23.8309 11.3326 22.8005 9.79074C21.77 8.24886 20.3054 7.04725 18.5918 6.3379C16.8783 5.62856 14.993 5.44335 13.1742 5.8057C11.3554 6.16806 9.68494 7.0617 8.37412 8.37358L4.3885 12.3475C4.02184 12.7131 3.42825 12.7122 3.06267 12.3455C2.6971 11.9789 2.69797 11.3853 3.06463 11.0197L7.04776 7.0483C7.04795 7.0481 7.04815 7.04791 7.04835 7.04771C8.62123 5.47377 10.6255 4.40162 12.8078 3.96684Z" fill="#1554D5"/>
</svg>
