<svg width="24" height="24" viewBox="0 0 24 24" fill="none" xmlns="http://www.w3.org/2000/svg">
<path d="M16.34 1.99982H7.67C4.28 1.99982 2 4.37982 2 7.91982V16.0898C2 19.6198 4.28 21.9998 7.67 21.9998H16.34C19.73 21.9998 22 19.6198 22 16.0898V7.91982C22 4.37982 19.73 1.99982 16.34 1.99982Z" fill="#D0D3DB"/>
<path fill-rule="evenodd" clip-rule="evenodd" d="M11.1248 8.18927C11.1248 8.67127 11.5158 9.06427 11.9948 9.06427C12.4878 9.06427 12.8798 8.67127 12.8798 8.18927C12.8798 7.70727 12.4878 7.31427 12.0048 7.31427C11.5198 7.31427 11.1248 7.70727 11.1248 8.18927ZM12.8698 11.3621C12.8698 10.8801 12.4768 10.4871 11.9948 10.4871C11.5128 10.4871 11.1198 10.8801 11.1198 11.3621V15.7821C11.1198 16.2641 11.5128 16.6571 11.9948 16.6571C12.4768 16.6571 12.8698 16.2641 12.8698 15.7821V11.3621Z" fill="#757B8C"/>
</svg>
