<svg width="25" height="24" viewBox="0 0 25 24" fill="none" xmlns="http://www.w3.org/2000/svg">
<path fill-rule="evenodd" clip-rule="evenodd" d="M14.3394 5.38078L12.4961 7.22414C12.2032 7.51704 11.7283 7.51704 11.4354 7.22414C11.1425 6.93125 11.1425 6.45638 11.4354 6.16348L13.2916 4.30723C13.2998 4.29905 13.3082 4.29106 13.3168 4.28326C14.2452 3.43699 15.4641 2.98102 16.72 3.0101C17.976 3.03918 19.1724 3.55106 20.0608 4.43939C20.9491 5.32772 21.461 6.52417 21.4901 7.78011C21.5191 9.03606 21.0632 10.2549 20.2169 11.1834C20.2088 11.1923 20.2005 11.201 20.192 11.2095L17.5408 13.8513C17.5405 13.8516 17.5402 13.8519 17.5399 13.8522C17.088 14.3055 16.5512 14.6652 15.96 14.9107C15.3685 15.1564 14.7343 15.2828 14.0938 15.2828C13.4534 15.2828 12.8192 15.1564 12.2277 14.9107C11.6361 14.665 11.099 14.305 10.6469 13.8513C10.3546 13.5578 10.3554 13.083 10.6489 12.7906C10.9423 12.4983 11.4172 12.4992 11.7095 12.7926C12.0222 13.1065 12.3938 13.3555 12.803 13.5254C13.2121 13.6953 13.6508 13.7828 14.0938 13.7828C14.5369 13.7828 14.9756 13.6953 15.3847 13.5254C15.7939 13.3555 16.1655 13.1065 16.4782 12.7926L16.4801 12.7907L19.1198 10.1603C19.6988 9.51854 20.0105 8.67937 19.9905 7.81483C19.9703 6.94459 19.6156 6.11557 19.0001 5.50005C18.3846 4.88453 17.5556 4.52984 16.6853 4.5097C15.8206 4.48968 14.9812 4.80151 14.3394 5.38078Z" fill="white"/>
<path fill-rule="evenodd" clip-rule="evenodd" d="M10.9063 10.2168C10.4633 10.2168 10.0246 10.3043 9.61544 10.4742C9.20628 10.6441 8.8347 10.8932 8.52201 11.207L8.52008 11.209L5.88036 13.8393C5.30136 14.4811 4.98968 15.3203 5.0097 16.1848C5.02984 17.055 5.38453 17.8841 6.00005 18.4996C6.61557 19.1151 7.44459 19.4698 8.31483 19.4899C9.17958 19.5099 10.019 19.1981 10.6608 18.6188L12.5041 16.7755C12.797 16.4826 13.2719 16.4826 13.5648 16.7755C13.8577 17.0684 13.8577 17.5432 13.5648 17.8361L11.7085 19.6924C11.7003 19.7006 11.692 19.7086 11.6834 19.7164C10.7549 20.5626 9.53607 21.0186 8.28012 20.9895C7.02417 20.9604 5.82772 20.4486 4.93939 19.5602C4.05106 18.6719 3.53918 17.4755 3.5101 16.2195C3.48102 14.9636 3.93699 13.7447 4.78326 12.8162C4.79135 12.8073 4.79966 12.7986 4.80817 12.7902L7.46039 10.1473C7.91223 9.69406 8.44905 9.33439 9.04012 9.08891C9.63163 8.84325 10.2658 8.7168 10.9063 8.7168C11.5468 8.7168 12.181 8.84325 12.7725 9.08891C13.364 9.33457 13.9012 9.6946 14.3533 10.1483C14.6456 10.4418 14.6447 10.9167 14.3513 11.209C14.0578 11.5014 13.583 11.5005 13.2906 11.207C12.9779 10.8932 12.6063 10.6441 12.1972 10.4742C11.788 10.3043 11.3494 10.2168 10.9063 10.2168Z" fill="white"/>
</svg>
