<svg width="30" height="30" viewBox="0 0 30 30" fill="none" xmlns="http://www.w3.org/2000/svg">
<path fill-rule="evenodd" clip-rule="evenodd" d="M24.23 17.62C24.0358 17.32 23.7599 17.02 23.4022 16.83C23.1161 16.69 22.9321 16.46 22.7686 16.19C22.2474 15.33 22.554 14.2 23.4227 13.69C24.4446 13.12 24.7716 11.85 24.1789 10.86L23.4942 9.68C22.9117 8.69 21.6342 8.34 20.6225 8.92C19.7232 9.4 18.5684 9.08 18.0472 8.23C17.8837 7.95 17.7917 7.65 17.8121 7.35C17.8428 6.96 17.7201 6.59 17.5362 6.29C17.1581 5.67 16.4734 5.25 15.7171 5.25H14.2761C13.5301 5.27 12.8454 5.67 12.4673 6.29C12.2731 6.59 12.1607 6.96 12.1811 7.35C12.2016 7.65 12.1096 7.95 11.9461 8.23C11.4249 9.08 10.2701 9.4 9.38097 8.92C8.35901 8.34 7.09178 8.69 6.49905 9.68L5.81434 10.86C5.23182 11.85 5.55885 13.12 6.57059 13.69C7.43925 14.2 7.74584 15.33 7.23486 16.19C7.06112 16.46 6.87717 16.69 6.59102 16.83C6.24356 17.02 5.93697 17.32 5.77346 17.62C5.39533 18.24 5.41577 19.02 5.7939 19.67L6.49905 20.87C6.87717 21.51 7.58232 21.91 8.31813 21.91C8.6656 21.91 9.07438 21.81 9.40141 21.61C9.6569 21.44 9.96348 21.38 10.3007 21.38C11.3125 21.38 12.1607 22.21 12.1811 23.2C12.1811 24.35 13.1213 25.25 14.3068 25.25H15.6967C16.8719 25.25 17.8121 24.35 17.8121 23.2C17.8428 22.21 18.691 21.38 19.7027 21.38C20.0298 21.38 20.3364 21.44 20.6021 21.61C20.9291 21.81 21.3277 21.91 21.6853 21.91C22.4109 21.91 23.1161 21.51 23.4942 20.87L24.2096 19.67C24.5775 19 24.6081 18.24 24.23 17.62ZM10.8096 15.26C10.8096 17.5863 12.7284 19.38 15.0119 19.38C17.3137 19.38 19.1836 17.5685 19.1836 15.26C19.1836 12.9575 17.3198 11.13 15.0119 11.13C12.7223 11.13 10.8096 12.9396 10.8096 15.26Z" fill="white"/>
<path d="M15.012 18.0802C13.4075 18.0802 12.1096 16.8302 12.1096 15.2602C12.1096 13.6902 13.4075 12.4302 15.012 12.4302C16.6165 12.4302 17.8837 13.6902 17.8837 15.2602C17.8837 16.8302 16.6165 18.0802 15.012 18.0802Z" fill="white"/>
<path fill-rule="evenodd" clip-rule="evenodd" d="M15.0119 19.3801C12.7284 19.3801 10.8096 17.5864 10.8096 15.2601C10.8096 12.9398 12.7223 11.1301 15.0119 11.1301C17.3198 11.1301 19.1836 12.9576 19.1836 15.2601C19.1836 17.5686 17.3137 19.3801 15.0119 19.3801ZM12.1096 15.2601C12.1096 16.8301 13.4075 18.0801 15.0119 18.0801C16.6164 18.0801 17.8836 16.8301 17.8836 15.2601C17.8836 13.6901 16.6164 12.4301 15.0119 12.4301C13.4075 12.4301 12.1096 13.6901 12.1096 15.2601Z" fill="white" fill-opacity="0.3"/>
</svg>
