<svg width="30" height="30" viewBox="0 0 30 30" fill="none" xmlns="http://www.w3.org/2000/svg">
<path d="M22.6228 14.2869C21.8923 13.4339 21.5603 12.6947 21.5603 11.4388V11.0117C21.5603 9.37514 21.1837 8.32067 20.3647 7.2662C19.1025 5.62859 16.9776 4.6416 14.8975 4.6416H14.809C12.7726 4.6416 10.7143 5.58327 9.43027 7.1544C8.5666 8.23002 8.1462 9.32982 8.1462 11.0117V11.4388C8.1462 12.6947 7.83611 13.4339 7.08376 14.2869C6.53018 14.9154 6.35327 15.7231 6.35327 16.5973C6.35327 17.4725 6.6405 18.3014 7.21694 18.9752C7.96929 19.7829 9.03173 20.2985 10.117 20.3882C11.6883 20.5674 13.2596 20.6349 14.8538 20.6349C16.4469 20.6349 18.0182 20.5221 19.5905 20.3882C20.6748 20.2985 21.7373 19.7829 22.4896 18.9752C23.0651 18.3014 23.3533 17.4725 23.3533 16.5973C23.3533 15.7231 23.1764 14.9154 22.6228 14.2869Z" fill="#FFFFFF"/>
<path d="M16.8619 21.8701C16.362 21.7633 13.3158 21.7633 12.8159 21.8701C12.3885 21.9688 11.9264 22.1984 11.9264 22.702C11.9512 23.1824 12.2325 23.6064 12.6221 23.8753L12.6211 23.8763C13.125 24.2691 13.7163 24.5189 14.3355 24.6085C14.6655 24.6538 15.0014 24.6518 15.3433 24.6085C15.9615 24.5189 16.5528 24.2691 17.0567 23.8763L17.0557 23.8753C17.4453 23.6064 17.7266 23.1824 17.7514 22.702C17.7514 22.1984 17.2893 21.9688 16.8619 21.8701Z" fill="#9DB8EE"/>
</svg>
