<svg width="24" height="24" viewBox="0 0 24 24" fill="none" xmlns="http://www.w3.org/2000/svg">
<mask id="path-1-outside-1_1356_6521" maskUnits="userSpaceOnUse" x="0" y="0" width="24" height="24" fill="black">
<rect fill="white" width="24" height="24"/>
<path d="M16.34 2H7.67C4.28 2 2 4.38 2 7.92V16.09C2 19.62 4.28 22 7.67 22H16.34C19.73 22 22 19.62 22 16.09V7.92C22 4.38 19.73 2 16.34 2Z"/>
</mask>
<path d="M16.34 2H7.67C4.28 2 2 4.38 2 7.92V16.09C2 19.62 4.28 22 7.67 22H16.34C19.73 22 22 19.62 22 16.09V7.92C22 4.38 19.73 2 16.34 2Z" fill="#E9ECEF"/>
<path d="M16.34 0H7.67V4H16.34V0ZM7.67 0C5.48944 0 3.52987 0.776513 2.11941 2.24907C0.71612 3.71414 0 5.71646 0 7.92H4C4 6.58354 4.42388 5.62586 5.00809 5.01593C5.58513 4.41349 6.46056 4 7.67 4V0ZM0 7.92V16.09H4V7.92H0ZM0 16.09C0 18.29 0.717019 20.2898 2.12024 21.7531C3.53047 23.2236 5.48953 24 7.67 24V20C6.46047 20 5.58453 19.5864 5.00726 18.9844C4.42298 18.3752 4 17.42 4 16.09H0ZM7.67 24H16.34V20H7.67V24ZM16.34 24C18.5209 24 20.4784 23.2233 21.8865 21.7512C23.287 20.2871 24 18.2875 24 16.09H20C20 17.4225 19.578 18.3779 18.996 18.9863C18.4216 19.5867 17.5491 20 16.34 20V24ZM24 16.09V7.92H20V16.09H24ZM24 7.92C24 5.7189 23.2879 3.71682 21.8873 2.25089C20.479 0.776848 18.5209 0 16.34 0V4C17.5491 4 18.421 4.41315 18.9952 5.01411C19.5771 5.62318 20 6.5811 20 7.92H24Z" fill="white" mask="url(#path-1-outside-1_1356_6521)"/>
<path d="M15.0153 13.7705L13.2363 11.9925L15.0143 10.2145C15.3563 9.8735 15.3563 9.3185 15.0143 8.9775C14.6723 8.6335 14.1193 8.6345 13.7773 8.9765L11.9983 10.7545L10.2193 8.9745C9.87734 8.6325 9.32334 8.6345 8.98134 8.9745C8.64034 9.3165 8.64034 9.8715 8.98134 10.2125L10.7613 11.9925L8.98534 13.7675C8.64334 14.1095 8.64334 14.6645 8.98534 15.0045C9.15634 15.1765 9.37934 15.2615 9.60334 15.2615C9.82834 15.2615 10.0513 15.1765 10.2223 15.0055L11.9983 13.2295L13.7783 15.0085C13.9493 15.1795 14.1723 15.2645 14.3963 15.2645C14.6203 15.2645 14.8443 15.1785 15.0153 15.0085C15.3573 14.6665 15.3573 14.1125 15.0153 13.7705Z" fill="#2C303A"/>
</svg>
