<svg width="30" height="30" viewBox="0 0 30 30" fill="none" xmlns="http://www.w3.org/2000/svg">
<path d="M19.182 4.64154H10.801C7.76097 4.64154 5.99097 6.42154 5.99097 9.47154V19.8015C5.99097 22.9015 7.76097 24.6415 10.801 24.6415H19.182C22.271 24.6415 23.991 22.9015 23.991 19.8015V9.47154C23.991 6.42154 22.271 4.64154 19.182 4.64154Z" fill="#1554D5"/>
<path fill-rule="evenodd" clip-rule="evenodd" d="M11.0709 9.29156V9.30156C10.6399 9.30156 10.2909 9.65156 10.2909 10.0816C10.2909 10.5116 10.6399 10.8616 11.0709 10.8616H14.0599C14.4909 10.8616 14.8409 10.5116 14.8409 10.0706C14.8409 9.64156 14.4909 9.29156 14.0599 9.29156H11.0709ZM18.9109 15.3816H11.0709C10.6399 15.3816 10.2909 15.0316 10.2909 14.6016C10.2909 14.1716 10.6399 13.8206 11.0709 13.8206H18.9109C19.3409 13.8206 19.6909 14.1716 19.6909 14.6016C19.6909 15.0316 19.3409 15.3816 18.9109 15.3816ZM18.9109 19.9516H11.0709C10.7709 19.9916 10.4809 19.8416 10.3209 19.5916C10.1609 19.3316 10.1609 19.0016 10.3209 18.7516C10.4809 18.4916 10.7709 18.3516 11.0709 18.3816H18.9109C19.3099 18.4216 19.6109 18.7616 19.6109 19.1716C19.6109 19.5706 19.3099 19.9116 18.9109 19.9516Z" fill="white"/>
</svg>
