<svg width="30" height="30" viewBox="0 0 30 30" fill="none" xmlns="http://www.w3.org/2000/svg">
<path d="M19.182 4.6416H10.801C7.76097 4.6416 5.99097 6.4216 5.99097 9.4716V19.8016C5.99097 22.9016 7.76097 24.6416 10.801 24.6416H19.182C22.271 24.6416 23.991 22.9016 23.991 19.8016V9.4716C23.991 6.4216 22.271 4.6416 19.182 4.6416Z" fill="#D0D3DB"/>
<path fill-rule="evenodd" clip-rule="evenodd" d="M11.0709 9.29199V9.30199C10.6399 9.30199 10.2909 9.65199 10.2909 10.082C10.2909 10.512 10.6399 10.862 11.0709 10.862H14.0599C14.4909 10.862 14.8409 10.512 14.8409 10.071C14.8409 9.64199 14.4909 9.29199 14.0599 9.29199H11.0709ZM18.9109 15.382H11.0709C10.6399 15.382 10.2909 15.032 10.2909 14.602C10.2909 14.172 10.6399 13.821 11.0709 13.821H18.9109C19.3409 13.821 19.6909 14.172 19.6909 14.602C19.6909 15.032 19.3409 15.382 18.9109 15.382ZM18.9109 19.952H11.0709C10.7709 19.992 10.4809 19.842 10.3209 19.592C10.1609 19.332 10.1609 19.002 10.3209 18.752C10.4809 18.492 10.7709 18.352 11.0709 18.382H18.9109C19.3099 18.422 19.6109 18.762 19.6109 19.172C19.6109 19.571 19.3099 19.912 18.9109 19.952Z" fill="#757B8C"/>
</svg>
