<svg width="30" height="30" viewBox="0 0 30 30" fill="none" xmlns="http://www.w3.org/2000/svg">
<path d="M19.182 4.6416H10.801C7.76097 4.6416 5.99097 6.4216 5.99097 9.4716V19.8016C5.99097 22.9016 7.76097 24.6416 10.801 24.6416H19.182C22.271 24.6416 23.991 22.9016 23.991 19.8016V9.4716C23.991 6.4216 22.271 4.6416 19.182 4.6416Z" fill="white"/>
<path fill-rule="evenodd" clip-rule="evenodd" d="M11.0709 9.2915V9.3015C10.6399 9.3015 10.2909 9.6515 10.2909 10.0815C10.2909 10.5115 10.6399 10.8615 11.0709 10.8615H14.0599C14.4909 10.8615 14.8409 10.5115 14.8409 10.0705C14.8409 9.6415 14.4909 9.2915 14.0599 9.2915H11.0709ZM18.9109 15.3815H11.0709C10.6399 15.3815 10.2909 15.0315 10.2909 14.6015C10.2909 14.1715 10.6399 13.8205 11.0709 13.8205H18.9109C19.3409 13.8205 19.6909 14.1715 19.6909 14.6015C19.6909 15.0315 19.3409 15.3815 18.9109 15.3815ZM18.9109 19.9515H11.0709C10.7709 19.9915 10.4809 19.8415 10.3209 19.5915C10.1609 19.3315 10.1609 19.0015 10.3209 18.7515C10.4809 18.4915 10.7709 18.3515 11.0709 18.3815H18.9109C19.3099 18.4215 19.6109 18.7615 19.6109 19.1715C19.6109 19.5705 19.3099 19.9115 18.9109 19.9515Z" fill="#1554D5"/>
</svg>
