<svg width="24" height="25" viewBox="0 0 24 25" fill="none" xmlns="http://www.w3.org/2000/svg">
<g clip-path="url(#clip0_1356_7223)">
<g clip-path="url(#clip1_1356_7223)">
<path d="M18.3146 10.491C18.3146 10.5454 17.8882 15.938 17.6447 18.2075C17.4922 19.6003 16.5943 20.4451 15.2475 20.4691C14.2127 20.4922 13.1997 20.5002 12.2031 20.5002C11.1449 20.5002 10.1101 20.4922 9.10567 20.4691C7.80401 20.4379 6.90537 19.5763 6.76065 18.2075C6.51012 15.93 6.09154 10.5454 6.08376 10.491C6.07598 10.327 6.12888 10.171 6.23625 10.0446C6.34207 9.92782 6.49456 9.85742 6.65484 9.85742H17.7513C17.9108 9.85742 18.0555 9.92782 18.1699 10.0446C18.2765 10.171 18.3301 10.327 18.3146 10.491Z" fill="#D0D3DB"/>
<path d="M19.4 7.68149C19.4 7.3527 19.1409 7.09511 18.8297 7.09511H16.4971C16.0225 7.09511 15.6102 6.75752 15.5043 6.28154L15.3736 5.69836C15.1908 4.99358 14.5598 4.5 13.8518 4.5H10.549C9.8332 4.5 9.20843 4.99358 9.01859 5.73676L8.89643 6.28234C8.78984 6.75752 8.37748 7.09511 7.90365 7.09511H5.57108C5.25909 7.09511 5 7.3527 5 7.68149V7.98548C5 8.30627 5.25909 8.57186 5.57108 8.57186H18.8297C19.1409 8.57186 19.4 8.30627 19.4 7.98548V7.68149Z" fill="#757B8C"/>
</g>
</g>
<defs>
<clipPath id="clip0_1356_7223">
<rect width="24" height="24" fill="white" transform="translate(0 0.5)"/>
</clipPath>
<clipPath id="clip1_1356_7223">
<rect width="24" height="24" fill="white" transform="translate(0 0.5)"/>
</clipPath>
</defs>
</svg>
