<svg width="25" height="24" viewBox="0 0 25 24" fill="none" xmlns="http://www.w3.org/2000/svg">
<path fill-rule="evenodd" clip-rule="evenodd" d="M9.5 3.75C9.91421 3.75 10.25 4.08579 10.25 4.5V6.75C10.25 7.16421 9.91421 7.5 9.5 7.5C9.08579 7.5 8.75 7.16421 8.75 6.75V4.5C8.75 4.08579 9.08579 3.75 9.5 3.75Z" fill="#757B8C"/>
<path fill-rule="evenodd" clip-rule="evenodd" d="M15.5 16.5C15.9142 16.5 16.25 16.8358 16.25 17.25V19.5C16.25 19.9142 15.9142 20.25 15.5 20.25C15.0858 20.25 14.75 19.9142 14.75 19.5V17.25C14.75 16.8358 15.0858 16.5 15.5 16.5Z" fill="#757B8C"/>
<path fill-rule="evenodd" clip-rule="evenodd" d="M4.25 9C4.25 8.58579 4.58579 8.25 5 8.25H7.25C7.66421 8.25 8 8.58579 8 9C8 9.41421 7.66421 9.75 7.25 9.75H5C4.58579 9.75 4.25 9.41421 4.25 9Z" fill="#757B8C"/>
<path fill-rule="evenodd" clip-rule="evenodd" d="M17 15C17 14.5858 17.3358 14.25 17.75 14.25H20C20.4142 14.25 20.75 14.5858 20.75 15C20.75 15.4142 20.4142 15.75 20 15.75H17.75C17.3358 15.75 17 15.4142 17 15Z" fill="#757B8C"/>
<path fill-rule="evenodd" clip-rule="evenodd" d="M7.68647 11.5073C7.97936 11.8002 7.97936 12.275 7.68647 12.5679L6.62709 13.6273C6.06409 14.1903 5.7478 14.9539 5.7478 15.7501C5.7478 16.1443 5.82545 16.5347 5.97632 16.8989C6.12719 17.2632 6.34832 17.5941 6.62709 17.8729C6.90586 18.1517 7.23681 18.3728 7.60104 18.5237C7.96527 18.6745 8.35565 18.7522 8.74989 18.7522C9.54609 18.7522 10.3097 18.4359 10.8727 17.8729L11.9321 16.8135C12.2249 16.5206 12.6998 16.5206 12.9927 16.8135C13.2856 17.1064 13.2856 17.5813 12.9927 17.8742L11.9333 18.9335C11.089 19.7779 9.94391 20.2522 8.74989 20.2522C8.15866 20.2522 7.57323 20.1357 7.02701 19.9095C6.4808 19.6832 5.98449 19.3516 5.56643 18.9335C5.14838 18.5155 4.81675 18.0192 4.5905 17.473C4.36425 16.9268 4.2478 16.3413 4.2478 15.7501C4.2478 14.5561 4.72213 13.4109 5.56643 12.5666L6.62581 11.5073C6.9187 11.2144 7.39357 11.2144 7.68647 11.5073Z" fill="#757B8C"/>
<path fill-rule="evenodd" clip-rule="evenodd" d="M13.0666 5.06643C13.9109 4.22213 15.0561 3.7478 16.2501 3.7478C17.4441 3.7478 18.5892 4.22213 19.4335 5.06643C20.2779 5.91074 20.7522 7.05586 20.7522 8.24989C20.7522 9.44391 20.2779 10.589 19.4335 11.4333L18.3742 12.4927C18.0813 12.7856 17.6064 12.7856 17.3135 12.4927C17.0206 12.1998 17.0206 11.7249 17.3135 11.4321L18.3729 10.3727C18.9359 9.80968 19.2522 9.04609 19.2522 8.24989C19.2522 7.45368 18.9359 6.69009 18.3729 6.12709C17.8099 5.56409 17.0463 5.2478 16.2501 5.2478C15.4539 5.2478 14.6903 5.56409 14.1273 6.12709L13.0679 7.18647C12.775 7.47936 12.3002 7.47936 12.0073 7.18647C11.7144 6.89357 11.7144 6.4187 12.0073 6.12581L13.0666 5.06643Z" fill="#757B8C"/>
</svg>
