<svg width="34" height="34" viewBox="0 0 34 34" fill="none" xmlns="http://www.w3.org/2000/svg">
<circle cx="17" cy="17" r="17" fill="#F3F5F6"/>
<path fill-rule="evenodd" clip-rule="evenodd" d="M17.9957 11.8686C17.9292 11.3781 17.5087 11 17 11C16.445 11 15.9951 11.4499 15.9951 12.0049V15.9951H12.0049L11.8686 16.0043C11.3781 16.0708 11 16.4913 11 17C11 17.555 11.4499 18.0049 12.0049 18.0049H15.9951V21.9951L16.0043 22.1314C16.0708 22.6219 16.4913 23 17 23C17.555 23 18.0049 22.5501 18.0049 21.9951V18.0049H21.9951L22.1314 17.9957C22.6219 17.9292 23 17.5087 23 17C23 16.445 22.5501 15.9951 21.9951 15.9951H18.0049V12.0049L17.9957 11.8686Z" fill="#1554D5"/>
</svg>
