<svg width="25" height="24" viewBox="0 0 25 24" fill="none" xmlns="http://www.w3.org/2000/svg">
<path d="M20.4511 19.9537C24.8438 15.561 24.8438 8.43899 20.4511 4.04625C16.0584 -0.346482 8.93633 -0.346482 4.54359 4.04625C0.150859 8.43899 0.150859 15.561 4.54359 19.9537C8.93633 24.3465 16.0584 24.3465 20.4511 19.9537Z" fill="#FFA113"/>
<path fill-rule="evenodd" clip-rule="evenodd" d="M23.2059 15.4637C21.7901 19.843 17.7625 23.0475 12.959 23.2404L6.7201 17.0015C6.53213 16.8473 6.37013 16.6578 6.24348 16.4383C5.87457 15.7997 5.87457 15.0294 6.24348 14.3907L10.7267 6.62508C11.0954 5.98683 11.7628 5.60156 12.4999 5.60156C13.0989 5.60156 13.6518 5.85591 14.0357 6.29362L23.2059 15.4637Z" fill="#D5860F"/>
<path fill-rule="evenodd" clip-rule="evenodd" d="M12.4999 12.9866C12.7884 12.9866 13.0253 12.7583 13.0357 12.4699L13.1712 8.71786C13.1821 8.41261 12.941 8.16244 12.6354 8.16244C12.4438 8.16244 12.5559 8.16244 12.3643 8.16244C12.0589 8.16244 11.8177 8.41261 11.8287 8.71786L11.9642 12.4699C11.9746 12.7583 12.2114 12.9866 12.4999 12.9866ZM12.4999 14.2124C12.1207 14.2124 11.8131 14.5197 11.8131 14.8989C11.8131 15.2781 12.1207 15.5858 12.4999 15.5858C12.8791 15.5858 13.1864 15.2781 13.1864 14.8989C13.1864 14.5197 12.8791 14.2124 12.4999 14.2124ZM14.2731 6.62508L18.7564 14.3907C19.1252 15.0293 19.1252 15.7996 18.7564 16.4383C18.3879 17.0767 17.7206 17.4618 16.9834 17.4618H8.01634C7.27913 17.4618 6.61201 17.0767 6.24348 16.4383C5.87457 15.7997 5.87457 15.0294 6.24348 14.3907L10.7267 6.62508C11.0954 5.98683 11.7628 5.60156 12.4999 5.60156C13.2371 5.60152 13.9045 5.98678 14.2731 6.62508Z" fill="white"/>
</svg>
